<svg xmlns="http://www.w3.org/2000/svg" data-name="Layer 1" viewBox="0 0 512 640" x="0px" y="0px"><path d="M512,256A254.33,254.33,0,0,0,437,75a259.35,259.35,0,0,0-39-32.1l10.94-17.52a7.5,7.5,0,1,0-12.72-7.95L385.25,34.92A256.53,256.53,0,0,0,146.14,24.73,85.18,85.18,0,0,0,86.17,0C38.65,0,0,39.24,0,87.47a87.9,87.9,0,0,0,23.91,60.41,256.41,256.41,0,0,0,0,216.24A87.9,87.9,0,0,0,0,424.53C0,472.76,38.65,512,86.17,512a85.23,85.23,0,0,0,60-24.73,256.38,256.38,0,0,0,219.72,0,85.23,85.23,0,0,0,60,24.73c47.52,0,86.17-39.24,86.17-87.47a87.9,87.9,0,0,0-23.91-60.41A253.49,253.49,0,0,0,512,256ZM390,55.61a244,244,0,0,1,36.4,30,241.17,241.17,0,0,1,49.94,268.13,84.9,84.9,0,0,0-64.78-15.44A176,176,0,0,0,425.73,209.4a40.2,40.2,0,0,0-38.16-70.16,176.78,176.78,0,0,0-32.07-28.37ZM263.5,384.93a40.3,40.3,0,0,0-38.63,29,161.14,161.14,0,0,1-60.19-25.45,87.36,87.36,0,0,0-42.81-43.57,161.45,161.45,0,0,1-24.11-59.25,40.22,40.22,0,0,0,3.92-75.62,159.86,159.86,0,0,1,20.18-43,87.46,87.46,0,0,0,42.82-43.57,160.64,160.64,0,0,1,170.14-7.85l-34.49,55.22a96.24,96.24,0,1,0,12.71,8l34.5-55.22a162,162,0,0,1,27.26,23.86,40.19,40.19,0,0,0,37.08,68.2,160.82,160.82,0,0,1-21.76,129.27,87.38,87.38,0,0,0-42.8,43.57A159.47,159.47,0,0,1,301,410.6,40.28,40.28,0,0,0,263.5,384.93Zm25.22,40.23a25.22,25.22,0,1,1-25.22-25.23A25.24,25.24,0,0,1,288.72,425.16ZM86.17,272.4a25.23,25.23,0,1,1,25.22-25.23A25.26,25.26,0,0,1,86.17,272.4Zm165.86-10A7.49,7.49,0,0,0,262.36,260l12.75-20.41a25.11,25.11,0,1,1-12.71-8L249.64,252A7.48,7.48,0,0,0,252,262.36Zm18.54-43.84A39.85,39.85,0,0,0,256,215.78a40.28,40.28,0,1,0,27.28,10.7l21.78-34.87a80.89,80.89,0,1,1-12.71-8Zm106.75-42a25.23,25.23,0,1,1,25.23,25.23A25.26,25.26,0,0,1,377.32,176.55ZM256,15A239.56,239.56,0,0,1,377.3,47.65l-34.52,55.26a175.79,175.79,0,0,0-171.62-1.08,88.43,88.43,0,0,0-14.95-65.24A238.32,238.32,0,0,1,256,15ZM15,87.47C15,47.51,46.92,15,86.17,15s71.16,32.51,71.16,72.47-31.92,72.46-71.16,72.46S15,127.42,15,87.47ZM15,256a238.5,238.5,0,0,1,20.66-97.72,84.9,84.9,0,0,0,64.78,15.44A174.19,174.19,0,0,0,87,207l-.79,0a40.22,40.22,0,0,0-3.37,80.3,176.41,176.41,0,0,0,17.67,51,85,85,0,0,0-64.81,15.44A238.5,238.5,0,0,1,15,256ZM86.17,497C46.92,497,15,464.49,15,424.53s31.92-72.46,71.17-72.46,71.16,32.51,71.16,72.46S125.41,497,86.17,497ZM256,497a238.32,238.32,0,0,1-99.79-21.59,87.86,87.86,0,0,0,16.12-50.88,88.71,88.71,0,0,0-1.17-14.39A176,176,0,0,0,223.46,429a40.22,40.22,0,0,0,80.26-3.56,173.85,173.85,0,0,0,37.12-15.24,88.43,88.43,0,0,0,15,65.24A238.32,238.32,0,0,1,256,497Zm241-72.47c0,40-31.92,72.47-71.17,72.47s-71.16-32.51-71.16-72.47,31.92-72.46,71.16-72.46S497,384.58,497,424.53Zm-380-39.6a7.5,7.5,0,0,0-7.5-7.5H62.88a7.5,7.5,0,1,0,0,15h8.47a17.91,17.91,0,0,1,16.23,10.41H62.88a7.5,7.5,0,1,0,0,15h24.7a17.9,17.9,0,0,1-16.23,10.4H62.88a7.5,7.5,0,0,0-5.42,12.68l33.87,35.46A7.5,7.5,0,1,0,102.17,466L79.45,442.23a33,33,0,0,0,23.93-24.39h6.07a7.5,7.5,0,0,0,0-15h-6.07a32.62,32.62,0,0,0-4.45-10.41h10.52A7.49,7.49,0,0,0,117,384.93Zm339.67,0a7.5,7.5,0,0,0-7.5-7.5H402.55a7.5,7.5,0,0,0,0,15H411a17.91,17.91,0,0,1,16.24,10.41h-24.7a7.5,7.5,0,0,0,0,15h24.7A17.9,17.9,0,0,1,411,428.24h-8.47a7.5,7.5,0,0,0-5.43,12.68L431,476.38a7.5,7.5,0,0,0,10.6.25,7.51,7.51,0,0,0,.24-10.61l-22.72-23.79a33,33,0,0,0,23.93-24.39h6.07a7.5,7.5,0,0,0,0-15h-6.07a32.62,32.62,0,0,0-4.45-10.41h10.52A7.5,7.5,0,0,0,456.62,384.93ZM55.38,73.27a7.5,7.5,0,0,0,7.5,7.5h24.7a17.9,17.9,0,0,1-16.23,10.4H62.88a7.5,7.5,0,0,0-5.42,12.68l33.87,35.46A7.5,7.5,0,1,0,102.17,129L79.45,105.16a33,33,0,0,0,23.93-24.39h6.07a7.5,7.5,0,0,0,0-15h-6.07a32.57,32.57,0,0,0-4.45-10.4h10.52a7.5,7.5,0,0,0,0-15H62.88a7.5,7.5,0,0,0,0,15h8.47a17.9,17.9,0,0,1,16.23,10.4H62.88A7.5,7.5,0,0,0,55.38,73.27Z"  fill="blue"/></svg>